<svg xmlns="http://www.w3.org/2000/svg" viewBox="0 0 1600 900" role="img" aria-labelledby="title desc">
  <title id="title">Mirror View Fallback</title>
  <desc id="desc">Fallback artwork for mirror analytics preview.</desc>
  <defs>
    <linearGradient id="bg" x1="0" y1="0" x2="1" y2="1">
      <stop offset="0%" stop-color="#0b1324"/>
      <stop offset="100%" stop-color="#1d2b4f"/>
    </linearGradient>
    <linearGradient id="accent" x1="0" y1="0" x2="0" y2="1">
      <stop offset="0%" stop-color="#22d3ee"/>
      <stop offset="100%" stop-color="#14b8a6"/>
    </linearGradient>
  </defs>
  <rect width="1600" height="900" fill="url(#bg)"/>
  <rect x="100" y="84" width="1400" height="732" rx="28" fill="#0f172a" stroke="#334155" stroke-width="4"/>
  <rect x="140" y="130" width="1320" height="56" rx="14" fill="#111827"/>
  <rect x="168" y="148" width="200" height="20" rx="10" fill="#1f2937"/>
  <rect x="1180" y="142" width="256" height="32" rx="16" fill="#0f766e"/>
  <rect x="140" y="226" width="640" height="260" rx="18" fill="#111827" stroke="#334155"/>
  <rect x="820" y="226" width="640" height="260" rx="18" fill="#111827" stroke="#334155"/>
  <rect x="140" y="516" width="430" height="250" rx="18" fill="#111827" stroke="#334155"/>
  <rect x="600" y="516" width="430" height="250" rx="18" fill="#111827" stroke="#334155"/>
  <rect x="1060" y="516" width="400" height="250" rx="18" fill="#111827" stroke="#334155"/>
  <path d="M188 440 C280 322, 420 372, 530 300 C610 248, 684 274, 744 242" fill="none" stroke="url(#accent)" stroke-width="12" stroke-linecap="round"/>
  <rect x="860" y="286" width="120" height="140" rx="12" fill="#155e75"/>
  <rect x="1000" y="334" width="120" height="92" rx="12" fill="#0f766e"/>
  <rect x="1140" y="252" width="120" height="174" rx="12" fill="#0e7490"/>
  <rect x="1280" y="308" width="120" height="118" rx="12" fill="#0891b2"/>
  <text x="170" y="290" font-family="Arial, sans-serif" font-size="40" fill="#e2e8f0" font-weight="700">Mirror View Analytics</text>
  <text x="170" y="338" font-family="Arial, sans-serif" font-size="24" fill="#94a3b8">Speed patterns • Revisits • Topic-level precision</text>
</svg>
