<svg xmlns="http://www.w3.org/2000/svg" viewBox="0 0 1600 900" role="img" aria-labelledby="title desc">
  <title id="title">Mock UI Fallback</title>
  <desc id="desc">Fallback artwork for exam mock interface preview.</desc>
  <defs>
    <linearGradient id="bg" x1="0" y1="0" x2="1" y2="1">
      <stop offset="0%" stop-color="#0f172a"/>
      <stop offset="100%" stop-color="#1e293b"/>
    </linearGradient>
    <linearGradient id="card" x1="0" y1="0" x2="1" y2="1">
      <stop offset="0%" stop-color="#f8fafc"/>
      <stop offset="100%" stop-color="#e2e8f0"/>
    </linearGradient>
  </defs>
  <rect width="1600" height="900" fill="url(#bg)"/>
  <rect x="80" y="76" width="1440" height="748" rx="28" fill="#0b1222" stroke="#334155" stroke-width="4"/>
  <rect x="120" y="116" width="1360" height="72" rx="16" fill="#111827"/>
  <rect x="140" y="138" width="220" height="28" rx="14" fill="#1f2937"/>
  <rect x="390" y="138" width="160" height="28" rx="14" fill="#1f2937"/>
  <rect x="1080" y="132" width="180" height="40" rx="20" fill="#0f766e"/>
  <rect x="1280" y="132" width="180" height="40" rx="20" fill="#0ea5e9"/>
  <rect x="120" y="220" width="940" height="560" rx="20" fill="url(#card)"/>
  <rect x="1100" y="220" width="380" height="560" rx="20" fill="#111827" stroke="#334155"/>
  <rect x="1160" y="270" width="260" height="30" rx="15" fill="#334155"/>
  <rect x="1140" y="330" width="300" height="74" rx="12" fill="#1f2937"/>
  <rect x="1140" y="426" width="300" height="74" rx="12" fill="#1f2937"/>
  <rect x="1140" y="522" width="300" height="74" rx="12" fill="#1f2937"/>
  <rect x="1140" y="618" width="300" height="74" rx="12" fill="#1f2937"/>
  <text x="160" y="300" font-family="Arial, sans-serif" font-size="40" fill="#0f172a" font-weight="700">Exam-like Mock Interface</text>
  <text x="160" y="348" font-family="Arial, sans-serif" font-size="24" fill="#334155">Section locks • Palette • Timer • Question flow</text>
</svg>
